<?xml version="1.0" encoding="UTF-8"?>
<svg version="1.1" viewBox="0 0 2048 1047" width="1280" height="1280" xmlns="http://www.w3.org/2000/svg">
<path transform="translate(0)" d="m0 0h2048v1047h-2048z" fill="#FEFEFE"/>
<path transform="translate(926,179)" d="m0 0h171l19 5 15 8 10 8 8 8 10 14 13 23 14 24 16 28 14 24 12 21 8 16 5 14 2 11v17l-4 16-7 17-16 28-30 52-14 24-15 26-11 14-12 10-16 9-14 5-6 1-39 1h-27l-107-1-12-3-12-5-12-7-14-12-10-14-16-28-14-24-16-28-14-24-15-26-6-14-4-18v-16l4-18 5-13 13-23 15-26 14-24 16-28 14-24 10-16 9-10 12-9 12-7 16-5z" fill="#3AC7AB"/>
<path transform="translate(926,179)" d="m0 0h171l19 5 15 8 10 8 8 8 10 14 13 23 14 24 16 28 14 24 12 21 4 11 3 6-2 4-3-1-4-8v-2l-3-1-2-5-7-8-2-6h-2l-8-11-2-4-4-2-5-6-5 1-3-2-3 1v7h2l1 6 1 2-5 2-3-1-9 2v-6l-11 1-3-3-1-5h-7v-2h-3l-2-2-4 1v-2h-11l-4-1-5 2-2-5-2 1-1 6h-5l-1 5-4-1-9-4-13-13-13-9-19-9-15-4-6-1h-27l-15 3-16 6-13 7-13 10-8 8h-4l-2 4-3 4-1 3h-2l-1 4-7 12-5 12-2 1-2-2 2-11 3-15 2-5-9 3-1-4-4 1-6-2-2 3-2-2 2-5-2-1 1-1-7 1-4-1-9 3-4 1-7 3-3 3-4-1-9-4-1-3-2-1v-2l-6 2v-4l1-2-2-1v2l-4 2v-2l-4 2-3-7 1-6 10-17 15-26 14-24 10-16 9-10 12-9 12-7 16-5z" fill="#45DE9F"/>
<path transform="translate(999,275)" d="m0 0h27l18 4 16 7 11 6 11 9 13 13-1 4-12 10-14 11-10 8-4-2-5-6-10-7-12-5-11-2h-8l-16 4-11 6-11 10-7 11-4 10-1 5v17l3 12 6 12 9 10 9 7 11 5 8 2h17l13-4 10-6 7-6 3-4-47-1-4-2v-37l1-8 1-1h110l1 1v30l-4 18-5 13-6 11-7 9-9 10-12 10-14 8-19 7-15 3-7 1h-11l-19-3-18-6-15-8-14-11-7-7-9-12-8-14-5-13-4-18-1-11v-11l2-16 5-16 8-16 7-11 11-12 9-8 13-8 16-7 14-4z" fill="#031532"/>
<path transform="translate(530,698)" d="m0 0h24l20 4 12 5 11 7 9 10 6 10 5 13 3 13 1 26-2 16-6 18-7 13-11 12-11 8-13 6-17 4h-30l-17-4-9-4-11-7-5-4-9-12-5-11-4-15-1-7v-30l3-15 5-14 6-11 11-12 7-6 12-7 17-5z" fill="#45DD9F"/>
<path transform="translate(312,701)" d="m0 0h39l17 2 13 4 11 6 8 9 5 11 2 8v15l-4 12-6 9-8 8-8 5h-2l6 11 12 19 17 28 1 2v9l-1 1-7 1h-24l-12-1-25-45-9-15-3-2h-6l1 30 4 5 10 6v13l-1 8-6 1h-52l-15-1-1-1v-24l15-5v-93l-10-7-6-4v-16l2-4 20-3z" fill="#45DD9F"/>
<path transform="translate(1102,701)" d="m0 0h42l19 3 15 6 10 9 5 8 4 13v17l-4 11-5 8-6 7-12 8 6 11 15 24 9 15 5 9v10l-4 1h-29l-10-1-6-9-10-19-13-23-5-8v-2l-8-1-1 1v29l5 5 9 6v15l-1 6-3 1h-56l-14-1-1-11v-14l16-5v-94l-5-2-11-7-1-1v-9l1-10 5-2 25-3z" fill="#45DD9F"/>
<path transform="translate(139,698)" d="m0 0h17l26 4 24 8 2 1-1 14-5 30-2 3-5 1h-13l-6-9-7-10-3-3-12-3-18-1-14 2-3 4-4 15-2 20v13l3 16 5 12 5 6 12 6 9 2h18l3-1v-11l-2-9-8-5-3-2v-16l7-3 29-5h15l3 4 1 3v64l-12 6-20 6-17 3h-29l-17-4-12-5-11-7-10-11-8-14-4-13-2-11v-33l4-17 5-12 7-11 10-10 14-9 14-5z" fill="#45DD9F"/>
<path transform="translate(870,703)" d="m0 0h126l1 1 1 15v32l-4 2h-15l-14-18-4-2-31-1v35l37-3h12v36l-1 1-14-1-29-3h-5v33h23l16-1 2-4 10-11 3-4h12l7 1v17l-3 31-4 2h-89l-37-1-1-24 9-4 7-2v-93l-4-4-11-7-2-2 1-20z" fill="#45DD9F"/>
<path transform="translate(1822,703)" d="m0 0h127l1 17v31l-5 2h-14l-14-18-4-2-31-1v35l37-3h12v36l-5 1-38-4-6-1v34h24l13-1 5-5 11-12 2-2h10l8 1v18l-2 23-1 7-1 1-12 1h-79l-37-1-1-1-1-23 9-4 7-2v-93l-4-4-11-7-1-1v-21z" fill="#45DD9F"/>
<path transform="translate(1255,703)" d="m0 0h126l1 1 1 18v29l-5 2h-14l-11-14-5-5-4-1h-29v34l37-3h12v36l-5 1-38-4h-6v33h24l12-1 8-7 7-8 4-4h10l8 1v20l-3 27-1 2-3 1h-88l-38-1-1-24 9-4 7-2v-93l-4-4-11-7-1-1v-21z" fill="#45DD9F"/>
<path transform="translate(1531,699)" d="m0 0h8l3 5 11 29 20 54 13 35 8 16 4 5-1 12-2 5h-66l-2-17v-6l13-4h2l-6-21h-29l-16 1-5 13v5l16 7 2 3-3 18-1 1h-61l-1-1v-21l5-3 6-12 13-31 18-44 16-38 5-8z" fill="#45DD9F"/>
<path transform="translate(1702,698)" d="m0 0h23l18 3 16 5 6 3-1 20-2 22-1 2-3 1-15 1-13-17-5-5-8-2-14-1-7 2-2 3 1 9 7 8 20 11 16 8 15 9 10 10 5 9 2 8v11l-3 12-6 10-7 8-13 8-16 5-11 2h-28l-20-3-17-4-2-2 1-19 2-22 1-2 14-4 6 1 10 17 5 3 12 3h14l8-3 1-4-2-7-7-6-16-8-19-10-10-8-8-8-7-14-1-5v-15l3-13 6-11 9-9 12-7 14-4z" fill="#45DD9F"/>
<path transform="translate(743,698)" d="m0 0h25l21 4 21 7 3 2-1 13-5 29-2 5-1 1h-17l-16-22-7-2-8-1h-14l-9 2-3 4-4 17-1 7v26l4 16 5 9 7 6 11 4 4 1h12l17-3 20-5 3 1 7 22-1 5-16 8-18 6-15 3h-26l-16-4-14-7-12-11-7-9-6-13-4-13-2-14v-24l4-20 7-16 8-11 7-7 14-9 15-5z" fill="#45DD9F"/>
<path transform="translate(1088,34)" d="m0 0h12l19 4 4 8 2 9 1 9v12l-3 16-4 12-8 15-9 12-12 12-13 8-13 6-15 4-7 1h-16l-13-2-8-4-3-8-2-10v-23l3-15 6-15 7-12 11-13 14-11 15-8 18-5z" fill="#08D750"/>
<path transform="translate(533,732)" d="m0 0 13 1 10 4 8 7 5 8 4 12 1 7v28l-2 15-3 8-6 4-10 3h-17l-9-4-6-4-7-10-5-16-1-5v-35l2-12 3-5 5-3z" fill="#FEFEFE"/>
<path transform="translate(946,98)" d="m0 0h10l12 5 9 7 7 10 4 10v17l-5 12-4 5-10-1-14-7-7-7-7-11-3-11v-10l4-13z" fill="#09D751"/>
<path transform="translate(788,931)" d="m0 0h10l8 4 6 7 3 8v37l-3 2h-5l-1-1-1-15-26-1v14l-2 3h-5l-2-2v-35l3-10 6-7 5-3z" fill="#3AC7AC"/>
<path transform="translate(115,931)" d="m0 0h23l6 3 6 7 2 5v8l-3 6-5 5-3 2 1 4 8 12v5l-5 1-6-7-8-12-8-1h-4v17l-3 3-5-1-1-1v-54z" fill="#3AC7AC"/>
<path transform="translate(1701,931)" d="m0 0h23l6 3 7 8 1 3v10l-4 7-7 6 4 7 6 10-1 3-5 1-7-9-7-10-8-1h-3v15l-1 4-6 1-2-1-1-19 1-37z" fill="#3AC7AC"/>
<path transform="translate(1225,931)" d="m0 0h24l6 3 6 7 2 5v8l-4 8-7 6 5 9 5 8-2 4-5-1-11-15-2-3-10-1-1 1-1 17-2 2-6-1v-56z" fill="#3AC7AC"/>
<path transform="translate(1900,931)" d="m0 0h23l6 4 6 7 1 3v10l-6 9-7 4-5 1h-14l-1 18-3 2-5-1v-56z" fill="#3AC7AB"/>
<path transform="translate(1e3 115)" d="m0 0h1l1 19 2 9 5-1 7-5h57l1 5-2 5v4l3 1-11 5-15 4-7 1h-16l-13-2-8-4-3-8-2-10z" fill="#45DD9F"/>
<path transform="translate(1071,939)" d="m0 0h13l8 5 4 5 2 5v13l-4 7-7 6-6 2h-9l-6-3-5-4-5-10v-9l3-8 8-7z" fill="#FEFEFE"/>
<path transform="translate(329,730)" d="m0 0h19l7 3 5 5 2 8v11l-2 10-3 2h-28l-1-1v-37z" fill="#FEFEFE"/>
<path transform="translate(1119,730)" d="m0 0h19l8 3 4 4 2 6v16l-2 8-2 2h-29l-1-1v-36z" fill="#FEFEFE"/>
<path transform="translate(338,932)" d="m0 0h8l1 22 1 1h22l1-22 1-1h8v55l-3 2h-5l-1-2v-23h-24l-1 23-2 2h-6l-1-2v-54z" fill="#3AC7AC"/>
<path transform="translate(1072,931)" d="m0 0h12l10 5 7 7 5 10v14l-5 10-8 8-9 4h-12l-10-4-7-6-5-8-2-7v-9l4-10 8-9 8-4zm-1 8-8 5-5 6-2 6v9l5 10 8 6 3 1h9l8-3 8-9 1-3v-13l-4-8-6-5-4-2z" fill="#3AC7AC"/>
<path transform="translate(1564,931)" d="m0 0h10l10 4 4 3-1 5-5 1-9-4h-11l-8 5-4 5-2 6v8l3 8 5 5 7 4h9l8-4 1-1v-9l-12-1-2-2 1-5 8-1h9l5 3 1 3v12l-3 6-7 5-7 2h-10l-11-4-8-7-5-9-1-4v-10l4-10 8-9 9-4z" fill="#3AC7AC"/>
<path transform="translate(190,931)" d="m0 0h32l1 1v5l-2 2h-25v16l24 1v5l-5 3h-18v17h20l6 2v5l-1 1h-34l-1-1v-56z" fill="#3AC7AC"/>
<path transform="translate(498,931)" d="m0 0h33l1 3-3 5-24 1-1 15 24 1-1 7-22 1v17h20l6 1v6l-1 1h-34l-1-2v-54z" fill="#3AC7AC"/>
<path transform="translate(433,931)" d="m0 0h10l8 4 6 7 3 8v36l-3 3h-5l-1-1-1-40-3-6-4-2h-10l-6 4-2 4-1 39-3 2-5-1-1-1v-35l3-10 6-7 5-3z" fill="#3AC7AC"/>
<path transform="translate(1478,931)" d="m0 0h9l8 4 7 8 2 5v39l-3 2-5-1-1-1-1-40-3-5-4-2h-10l-5 3-3 6-1 38-3 2-5-1-1-2v-25l1-13 5-10 5-4z" fill="#3AC7AC"/>
<path transform="translate(1628,931)" d="m0 0h32l1 4-2 4-25 1v14l3 1 20 1 1 3-2 4h-22l-1 18h22l5 1 1 5-1 2h-34l-1-1v-56z" fill="#3AC7AC"/>
<path transform="translate(1145,931)" d="m0 0 5 1 1 40 3 6 6 3h7l7-4 2-4 1-41h9v39l-5 10-7 6-5 2h-9l-8-3-6-5-4-8-1-5v-35z" fill="#3AC7AC"/>
<path transform="translate(584,931)" d="m0 0h11l8 4 6 6-1 4-5 1-9-6-8-1-6 3-2 2v6l4 4 18 5 8 5 3 9-3 7-7 7-5 2h-11l-8-3-7-5-4-6 2-4 5 1 5 5 6 4h10l6-2 2-8-3-3-21-7-8-7-1-3v-7l3-6 6-5z" fill="#3AC7AC"/>
<path transform="translate(276,931)" d="m0 0h10l9 4 6 6-1 4-4 1-10-6-7-1-7 3-2 3v5l4 4 21 6 5 4 3 6-1 7-6 8-8 4h-11l-10-4-8-8v-5l5-1 4 5 8 5h10l6-3 2-3-1-6-22-8-6-4-3-4-1-7 3-8 8-6z" fill="#3AC7AC"/>
<path transform="translate(663,931)" d="m0 0h10l10 5 5 5-2 4-4 1-9-6-9-1-6 2-1 9 4 4 18 5 6 4 4 5v8l-4 6-6 5-5 2h-10l-8-3-8-6-3-5 2-4 5 1 4 5 7 4h10l5-3 2-2v-7l-10-4-13-4-8-7-1-3v-7l3-6 6-5z" fill="#3AC7AC"/>
<path transform="translate(1989,931)" d="m0 0h10l10 5 5 6-1 3-4 1-9-6-9-1-5 2-3 4 1 7 6 3 15 4 6 4 4 5 1 5-3 7-7 7-5 2h-11l-10-4-8-8v-5l5-1 5 6 7 4h10l6-3 2-4-1-5-10-4-10-3-8-5-3-4-1-7 3-8 6-5z" fill="#3AC7AC"/>
<path transform="translate(1347,931)" d="m0 0h32l1 1v5l-2 2h-25v19l24 1-1 6-1 1h-22v18l-1 4-6 1-2-1v-55z" fill="#3AC7AC"/>
<path transform="translate(976,931)" d="m0 0 3 2 1 20 6 7 10 1 7-4 3-8v-15l1-2 6-1 2 3v17l-5 10-7 6-6 2v14l-2 5-5 1-2-3-1-16-10-7-5-8-2-8v-12l1-3z" fill="#3AC7AC"/>
<path transform="translate(940,110)" d="m0 0 1 3v17l4 11 6 7h3l-1-6 3-7 2-1h10l8 2 5 4 3 7 2 1v-17l-2-9 2 2 2 6v17l-5 12-4 5-10-1-14-7-7-7-7-11-3-11v-10z" fill="#44DCA0"/>
<path transform="translate(48,931)" d="m0 0h26l1 5-2 3h-26v19l24 1 1 2-2 5h-23v21l-2 2h-5l-1-1v-56z" fill="#3AC7AC"/>
<path transform="translate(1774,931)" d="m0 0h40l2 1-2 6-2 1-12 1-1 46-1 2-7 1-1-1-1-48-11-1-4-2-1-4z" fill="#3AC7AC"/>
<path transform="translate(848,931)" d="m0 0h40l2 3-5 5h-12v23l-1 26-7 1-1-1-1-48-12-1-3-1-1-6z" fill="#3AC7AC"/>
<path transform="translate(788,939)" d="m0 0h9l5 3 4 6v15l-1 1h-25l-1-1v-15l4-6z" fill="#FEFEFE"/>
<path transform="translate(1514,744)" d="m0 0 2 1 8 27 4 10-1 3-26-2 1-6 7-20z" fill="#FEFEFE"/>
<path transform="translate(1231,939)" d="m0 0h17l5 3 2 4v8l-5 6-2 1h-17l-1-1v-20z" fill="#FEFEFE"/>
<path transform="translate(1851,932)" d="m0 0h9v55l-3 2-5-1-1-1z" fill="#3AC7AC"/>
<path transform="translate(1416,932)" d="m0 0h8v55l-3 2-5-1-1-1v-54z" fill="#3AC7AC"/>
<path transform="translate(120,939)" d="m0 0h17l5 3 2 5v6l-4 6-4 2h-17v-21z" fill="#FEFEFE"/>
<path transform="translate(1904,939)" d="m0 0h18l5 4 1 2v10l-7 6h-17l-1-6z" fill="#FEFEFE"/>
<path transform="translate(1706,939)" d="m0 0h17l5 3 2 4v8l-5 6-2 1h-17z" fill="#FEFEFE"/>
<path transform="translate(1e3 359)" d="m0 0 6 1 3 1 3-1 11 1 4 3-10 1h-8l-10 1-3-3v-2z" fill="#45DE9F"/>
<path transform="translate(1103,359)" d="m0 0h15l3 2 1 4-3 3h-2v-2h-2v-2h-18l-2-2z" fill="#46DF9F"/>
<path transform="translate(1028,330)" d="m0 0 5 2 7 3v2l6 2v2l3 1-1 2-3-1v-2h-3l-1-2-6-2h-3l-5-5z" fill="#46DF9F"/>
<path transform="translate(932,308)" d="m0 0 1 3-9 13-4 5 1-5 1-3h2l1-5 5-6h2z" fill="#3ED0A6"/>
<path transform="translate(1093,318)" d="m0 0h5v3l-5 4v-2l-6 2 2-4z" fill="#45DD9F"/>
<path transform="translate(886,196)" d="m0 0 2 1-16 16v-3l8-9z" fill="#3ECFA7"/>
<path transform="translate(977,337)" d="m0 0 3 1-5 4-4 6h-2v3l-2-1 2-5z" fill="#42D7A2"/>
</svg>
