<?xml version="1.0" encoding="UTF-8"?>
<svg version="1.1" viewBox="0 0 2000 2000" width="1280" height="1280" xmlns="http://www.w3.org/2000/svg">
<path transform="translate(0)" d="m0 0h2e3v2e3h-2e3z" fill="#FDFDFE"/>
<path transform="translate(645,724)" d="m0 0h9l2 1 18 51 7 18 2 1 2-9 11-31 11-30h60l-3 9-10 23-13 29-18 39-10 23-1 4-2 21 11-8 13-10 13-8 17-8 8 1v-115h76l17 3 13 5 13 8 12 12 7 11 6 13 5 15 3 16 1 9v32l-3 20-5 18 1 1 15 1 2 1 1-165h132l1 1 1 21v27l-1 3-54 1h-22l1 28 75 1 1 1v49l-1 1-75 1v27l1 1 75 1v51l-1 1h-133l-1-35h-27l-7 9-15 15-9 19-11 33-7 28-5 32-3 34-2 1-6-4-6-6v-14l2-21 4-25 6-26 13-41 1-2-10 3h-81v-58l-3 3-14 29-13 28-8 17v2l26 4 13 4 3 4v8l-3 1-20-4-8-1h-19l-6 15-11 33-3 12v7l5 8-2 4-6-1-7-5-4-8v-16l4-17 11-33-3 1-39 3-29 4-7 2-12 16-13 20-8 13-11 19-14 27-5 7-7-3-4-5 1-7 8-16 8-15 6-12 15-24 9-14-17 4-26 8-37 13-6-2-6-7v-4l10-5 26-10 30-9 32-8 9-2 3-1 2-5h2l2-4 13-16 9-10 4-7v-71l-2-8-26-58-19-42-9-21v-2z" fill="#B49E80"/>
<path transform="translate(262,724)" d="m0 0 56 1 3 7 15 50 37 124 10 34h-56l-3-7-6-23h-57l-9 30-28 1-12 27-6 15v4l11-9 10-8 21-14 9-4h9l8 7 3 7v8l-5 17-1 3 23-8 25-12 9-5 14-8h7l8 5 3 4 1 7-3 5-7 7-17 10-8 4-2 5 18-6 24-11 17-9 15-9h5l5 5-2 4-20 13-19 12-21 11-17 6h-7l-6-3-6-7-2-8 1-10-10 5-15 7-12 4-7-1-8-6-3-7v-7l4-13 2-6-5 2-14 9-16 12-15 14-6 6h-2v2l-4 1-8-6-3-4-2-6v-10l5-16 10-27 4-9h-7l-1-5 12-39 6-18-1-1h-24l-2 9-14 29-10 24-8 23-8 27-6 27-6 31-2 5-8-4-5-5 2-15 8-38 7-27 8-26 2-5-8 4-11 3-8 1h-79v-215h76l17 3 15 6 11 7 12 12 9 14 7 17 5 23 1 11v31l-1 12h24l2-1 10-33 22-72 9-30z" fill="#B49E80"/>
<path transform="translate(1472,725)" d="m0 0h57l1 79 37-1 1-78h56l1 6v209h-57v-59l-5 5-7 12-8 16-8 15-13 30-10 24-1 4 5-3 9-8 18-13 13-8 6-3h10l6 4 4 6 1 3v9l-5 20 24-9 21-10 10-7 5 2 5 5 2 4 24-12 14-5 6 1 5 4 1 2v8l-10 18-1 3 16-8 19-8 28-14 10-6 2-1h7l6 3 5 6 1 2v6l-5 7-13 9-17 9v4l6-1 20-8 16-8 13-7 13-8v-14l4-8 4-2h7l6 4 2 3v6l-7 5v6l5 7 9-3 23-8v-12l5-7 4-2h5l6 4 3 4v6l-5 3-3 2 1 7 3 4v2l6-1 17-6 11-3h7l2 3v5l-9 6-12 6-8 5-1 2v11l-4 11-8 10-4 2h-8l-6-4-5-6-1-2v-11l6-10 3-4h2v-2l4-3-1-5-1-1h-6l-16 8-8 6v13l-6 12-6 7-4 2h-8l-6-4-5-6-1-3v-8l3-8 9-10 3-3v-5l-5 1-18 11-15 9-19 10-15 6-4 1h-7l-7-4-5-6-2-4v-9l2-7-12 6-17 11-10 6-11 4-9-2-6-7-1-2v-8l4-13-13 9-10 8-10 9-7 8-4 1-7-6-2-3v-7l5-13-16 8-16 7-10 2-8-3-5-6-2-5v-8l6-19-5 3-11 7-15 11-10 9-8 7-9 9-4 1-6-4-5-6-2-6v-12l-6 3-7 5-1 4 1 7-5 12-6 8-6 4h-7l-6-3-6-7-1-2v-11l5-9 11-11v-4l-6 1-10 6-16 10-22 12-19 8-10 1-7-3-6-7-2-6 1-11 7-14 8-10 8-7 8-4 9-1 8 5 3 4 1 7-4 7-12 9-19 10-1 4 12-3 19-8 20-10 18-11 1-4-1-3v-8l5-8 3-1h7l5 3 4 6-1 4-7 4-1 5 5 8 3 1 15-6 13-4h2l3-10 7-18 2-4h-43z" fill="#B49E80"/>
<path transform="translate(1366,722)" d="m0 0h21l14 3 12 5 10 6 9 8 10 14 7 15 6 21 1 9-47 9h-9l-5-18-5-8-5-4-2-1h-11l-8 6-6 11-3 13-1 9v26l4 20 6 12 6 5 2 1h9l5-5 5-10v-4l-15-1v-40h81l1 1v66l-1 49h-26l-3-8-3-11v-3l-5 5-10 9-14 8-11 3h-18l-14-3-12-5-12-8-10-10-8-13-5-11-5-14v-5l-5 3-6 10-3 9v38l-1 6-22 1-5 12-8 20-2 7h19l16 2 6 4 2 3v7l-37 1 6 8 3 7v12l-4 10-8 11-14 14-8 5-6-2-7-8-2-8 1-14 6-24 2-6-1-5-4-4v-6l10-4 14-39 1-4h-15v-215h57l1 32v103l6-2h5l-1-6v-39l3-22 5-16 7-16 10-14 8-8 13-8 13-5z" fill="#B49E80"/>
<path transform="translate(645,724)" d="m0 0h9l2 1 18 51 7 18 2 1 2-9 11-31 11-30h60l-3 9-10 23-13 29-18 39-10 23-1 4-2 21 11-8 13-10 13-8 17-8 7 1 4 5 2 5v11l-4 16-8 16-17 36-14 30v2l26 4 13 4 3 4v8l-3 1-20-4-8-1h-19l-6 15-11 33-3 12v7l5 8-2 4-6-1-7-5-4-8v-16l4-17 11-33-3 1-39 3-29 4-7 2-12 16-13 20-8 13-11 19-14 27-5 7-7-3-4-5 1-7 8-16 8-15 6-12 15-24 9-14-17 4-26 8-37 13-6-2-6-7v-4l10-5 26-10 30-9 32-8 9-2 3-1 2-5h2l2-4 13-16 9-10 4-7v-71l-2-8-26-58-19-42-9-21v-2z" fill="#52BE95"/>
<path transform="translate(1862,722)" d="m0 0h29l14 3 13 5 14 9 7 7 7 10 8 16 5 15-27 9-19 5h-3l-5-12-5-7-9-5-4-1h-18l-11 4-4 6 1 7 9 6 39 15 25 12 13 9 9 9 7 11 4 9 2 10v14l-4 16-6 11-9 10-9 7-12 5-9 3-18 3h-25l-16-3-14-6-13-9-8-8-7-11-6-13-3-10v-6l24-8 19-5h4l4 10 5 7 10 6 11 2 12-1 8-3 5-4 1-2v-6l-8-7-18-8-31-12-16-8-14-9-11-11-6-10-4-12v-24l4-13 7-12 9-9 14-8 14-5z" fill="#B49E80"/>
<path transform="translate(936,725)" d="m0 0h132l1 1 1 21v27l-1 3-54 1h-22l1 28 75 1 1 1v49l-1 1-75 1v27l1 1 75 1v51l-1 1h-133v-35h10l21 3 17 4 6 2h6l1-1v-7l-6-2-11-5-16-4-16-3-13-2z" fill="#B49E80"/>
<path transform="translate(1570,844)" d="m0 0 6 1 4 5v7l-12 22-9 14-12 23-8 16-9 20-11 26-3 9 5-3 9-8 18-13 13-8 6-3h10l6 4 4 6 1 3v9l-5 20 24-9 21-10 10-7 5 2 5 5 2 4 24-12 14-5 6 1 5 4 1 2v8l-10 18-1 3 16-8 19-8 28-14 10-6 2-1h7l6 3 5 6 1 2v6l-5 7-13 9-17 9v4l6-1 20-8 16-8 13-7 13-8v-14l4-8 4-2h7l6 4 2 3v6l-7 5v6l5 7 9-3 23-8v-12l5-7 4-2h5l6 4 3 4v6l-5 3-3 2 1 7 3 4v2l6-1 17-6 11-3h7l2 3v5l-9 6-12 6-8 5-1 2v11l-4 11-8 10-4 2h-8l-6-4-5-6-1-2v-11l6-10 3-4h2v-2l4-3-1-5-1-1h-6l-16 8-8 6v13l-6 12-6 7-4 2h-8l-6-4-5-6-1-3v-8l3-8 9-10 3-3v-5l-5 1-18 11-15 9-19 10-15 6-4 1h-7l-7-4-5-6-2-4v-9l2-7-12 6-17 11-10 6-11 4-9-2-6-7-1-2v-8l4-13-13 9-10 8-10 9-7 8-4 1-7-6-2-3v-7l5-13-16 8-16 7-10 2-8-3-5-6-2-5v-8l6-19-5 3-11 7-15 11-10 9-8 7-9 9-4 1-6-4-5-6-2-6v-12l-6 3-7 5-1 4 1 7-5 12-6 8-6 4h-7l-6-3-6-7-1-2v-11l5-9 11-11v-4l-6 1-10 6-16 10-22 12-19 8-10 1-7-3-6-7-2-6 1-11 7-14 8-10 8-7 8-4 9-1 8 5 3 4 1 7-4 7-12 9-19 10-1 4 12-3 19-8 20-10 18-11 1-4-1-3v-8l5-8 3-1h7l5 3 4 6-1 4-7 4-1 5 5 8 3 1 15-6 13-4h2l3-10 7-18 4-9 10-23 11-19 14-24 14-22z" fill="#52BE95"/>
<path transform="translate(262,724)" d="m0 0 56 1 3 7 15 50 37 124 10 34h-56l-3-7-6-23h-57l-9 30h-27l3-10 11-23 12-21 7-9 14 1 18 3 11 3h9l-2-6-8-5-14-5-9-3-8-2v-10l-4-7-6-1-4 2-7 11-4 3-16 1-9-1 6-21 26-85 9-30z" fill="#B49E80"/>
<path transform="translate(1638,725)" d="m0 0h153v57l-48 1v157h-57l-1-157-47-1-1-1v-55z" fill="#B49E80"/>
<path transform="translate(458,725)" d="m0 0h56l1 1 1 156 75 1 1 25v31l-1 1h-133z" fill="#B49E80"/>
<path transform="translate(1084,725)" d="m0 0h55l1 70v87l76 1 1 1v51l-1 5-66 1-67-1v-214z" fill="#B49E80"/>
<path transform="translate(259,844)" d="m0 0 6 1 4 5 1 7-1 6 10 2 16 5 12 6 3 3v5l-2 1h-7l-21-5-17-2h-5l-7 10-9 16-8 15-7 16-9 19-10 24-2 5v4l11-9 10-8 21-14 9-4h9l8 7 3 7v8l-5 17-1 3 23-8 25-12 9-5 14-8h7l8 5 3 4 1 7-3 5-7 7-17 10-8 4-2 5 18-6 24-11 17-9 15-9h5l5 5-2 4-20 13-19 12-21 11-17 6h-7l-6-3-6-7-2-8 1-10-10 5-15 7-12 4-7-1-8-6-3-7v-7l4-13 2-6-5 2-14 9-16 12-15 14-6 6h-2v2l-4 1-8-6-3-4-2-6v-10l5-16 10-27 4-9h-7l-1-5 12-39 6-18-1-1h-24l-2 9-14 29-10 24-8 23-8 27-6 27-6 31-2 5-8-4-5-5 2-15 8-38 7-27 8-26 8-22 11-26 3-6 1-6-38 3-39 1-6-5-1-6 4-3 16-2 72-3 52-1 16-1 5-5 7-10z" fill="#52BE95"/>
<path transform="translate(645,724)" d="m0 0h9l2 1 18 51 7 18 2 1 2-9 11-31 11-30h60l-3 9-10 23-13 29-18 39-10 23-1 4-2 22-8 7-20 18-15 14-11 11h-2l-1 2-1-70-2-8-26-58-19-42-9-21v-2z" fill="#B49E80"/>
<path transform="translate(387,725)" d="m0 0h56l1 22v193h-56l-1-1z" fill="#B49E80"/>
<path transform="translate(1229,725)" d="m0 0h57l1 32v103l-5 5-6 9-15 30-9 20-6 14-2 4v-2h-15z" fill="#B49E80"/>
<path transform="translate(901,850)" d="m0 0h8l5 3 1 1v8l-6 16-3 5-1 5h13l21 2 21 3 16 4 11 4 10 5 1 7-2 2-9-1-14-4-19-3-19-2h-27l-7 9-15 15-9 19-11 33-7 28-5 32-3 34-2 1-6-4-6-6v-14l2-21 4-25 6-26 13-41 11-28 2-6-34 4-18 2-25 3-9-1-3-4-1-7 5-3 29-4 38-4 13-1 13-3 13-27z" fill="#52BE95"/>
<path transform="translate(1293,858)" d="m0 0 7 1 3 5v8l-8 6-7 13-1 9v34l-1 6-22 1-5 12-8 20-2 7h19l16 2 6 4 2 3v7l-37 1 6 8 3 7v12l-4 10-8 11-14 14-8 5-6-2-7-8-2-8 1-14 6-24 2-6-1-5-4-4v-6l10-4 14-39 5-13 12-27 8-16 10-19 7-9z" fill="#52BE95"/>
<path transform="translate(1061,947)" d="m0 0h6l7 8-1 6-8 15-7 12-1 3 14 1 10 5 5 6v5l-5 1-6-2h-12l-2 1 3 9 2 9v11l-4 28-4 15-5 12-8 12-3 3-5-1-9-8-6-10-3-12v-20l5-26 7-24 8-20 11-22 8-13z" fill="#52BE95"/>
<path transform="translate(830,782)" d="m0 0h16l9 3 6 7 4 8 3 12 1 8v23l-3 18-5 12-6 7-5 2-17 1-3-1-1-34v-65z" fill="#FDFDFE"/>
<path transform="translate(758,861)" d="m0 0 1 3-13 29-16 34-12 26-4 8-56 4-12 1v-3l13-15 8-8 43-1v-40l5-6 25-20z" fill="#FDFDFE"/>
<path transform="translate(100,782)" d="m0 0h14l10 3 7 8 4 10 2 9 1 10v20l-3 21-1 1-7 1-27 1-1-1-1-34v-36l1-12z" fill="#FDFDFE"/>
<path transform="translate(1015,955)" d="m0 0 6 1 6 9 1 6v12l-3 12-7 14-6 7-8 5-3 1h-7l-8-5-5-7-1-3v-14l7-14 9-10 10-9z" fill="#52BE95"/>
<path transform="translate(789,959)" d="m0 0 6 1 6 7 5-2 10-5 9 1 6 4 7 8-1 5-5 1-9-3-9 6-10 9-10 11-8 13-5 8-6-2-7-7 2-10 11-28 6-15z" fill="#52BE95"/>
<path transform="translate(1317,959)" d="m0 0 6 1 5 6 3 1 10-6 9-1 7 3 5 5 4 6-1 4-6 1-5-3-5 1-11 8-10 10-8 10-11 18-6-2-7-7 1-7 14-36 4-9z" fill="#52BE95"/>
<path transform="translate(709,900)" d="m0 0h1l1 10v29l-1 1h-41l2-1 2-5 9-10 9-9 11-9z" fill="#B49E80"/>
<path transform="translate(230,876)" d="m0 0 4 1-2 7-4 6-6 11-8 17-9 21-1 1h-7l-1-5 12-39 6-18 1-1z" fill="#B49E80"/>
<path transform="translate(289,800)" d="m0 0 2 1 5 25 7 30v2l-13 1h-14l-1-2 7-28 6-27z" fill="#FDFDFE"/>
<path transform="translate(1048,1012)" d="m0 0 3 1 1 2v12l-5 33-4 14-6 12h-4l-1-2v-9l4-26 6-24 4-11z" fill="#FDFDFE"/>
<path transform="translate(1555,860)" d="m0 0 2 1-2 5-16 27-9 16-2-1 1-46 1-1z" fill="#FDFDFE"/>
<path transform="translate(1285,896)" d="m0 0 2 1v37l-1 6h-22l5-13 9-20z" fill="#B49E80"/>
<path transform="translate(1241,1006)" d="m0 0h5l3 2v9l-6 11-8 10h-3l1-9 6-20z" fill="#FDFDFE"/>
<path transform="translate(901,904)" d="m0 0h7l-6 9-12 12h-2l1-6 6-11 3-3z" fill="#B49E80"/>
<path transform="translate(1009,981)" d="m0 0h2l-2 9-7 11-4 4-3-1 1-6 7-11z" fill="#FDFDFE"/>
<path transform="translate(102,880)" d="m0 0h19v2l-2 1h-19l-1-2z" fill="#FDFDFE"/>
</svg>
